<svg xmlns="http://www.w3.org/2000/svg" width="180" height="35" viewBox="0 0 180 35">
  <g id="Foursquare" transform="translate(-682 -1272)">
    <text id="Foursquare-2" data-name="Foursquare" transform="translate(790 1300)" fill="#32353c" font-size="26" font-family="SegoeUI-Bold, Segoe UI" font-weight="700" letter-spacing="0.021em"><tspan x="-71.062" y="0">Foursquare</tspan></text>
    <path id="logo-foursquare" d="M111.793,32h-13.4A2.223,2.223,0,0,0,96,34.273V55.628a1.441,1.441,0,0,0,.828,1.478,1.519,1.519,0,0,0,1.613-.347s6.326-7.363,6.435-7.472c.164-.165.164-.165.329-.165H109.3a2.075,2.075,0,0,0,2.176-1.955c.15-.607,1.827-9.223,2.388-11.956C114.289,33.125,113.761,32,111.793,32Zm-.319,15.167c.15-.607,1.827-9.223,2.388-11.956m-2.86.427-.562,2.91a.939.939,0,0,1-.836.652h-5.4a.913.913,0,0,0-1.008.934v.756a.971.971,0,0,0,1.011,1.007h4.6a.794.794,0,0,1,.732.9c-.09.445-.511,2.62-.562,2.863a.869.869,0,0,1-.822.66h-3.615a1.292,1.292,0,0,0-1.3.635c-.441.55-4.4,5.321-4.4,5.321-.04.046-.079.033-.079-.018V35.594a.839.839,0,0,1,.814-.817h10.753A.7.7,0,0,1,111,35.638Z" transform="translate(586 1247)" fill="#32353c"/>
  </g>
</svg>
