<svg id="ICON_1" data-name="ICON 1" xmlns="http://www.w3.org/2000/svg" width="80" height="72" viewBox="0 0 80 72">
  <path id="Path_2" data-name="Path 2" d="M61.667,36A18,18,0,1,0,80,54,18.173,18.173,0,0,0,61.667,36ZM39.553,65.455H0V0H73.333V32.289a25.141,25.141,0,0,0-6.667-2.343V6.545H43.333V26.182H30V6.545H6.667V58.909h30.5A24.1,24.1,0,0,0,39.553,65.455Zm20.063-9.622-4.2-3.868L52.213,55.2l7.467,6.981L72.23,49.634,68.967,46.46Z" fill="#33363b" fill-rule="evenodd"/>
  <path id="Path_3" data-name="Path 3" d="M6.486,19.059h7.568v2.118H6.486Z" transform="translate(8 20.25)" fill="#33363b"/>
  <path id="Path_4" data-name="Path 4" d="M6.486,23.294h7.568v2.118H6.486Z" transform="translate(8 24.75)" fill="#33363b"/>
</svg>
