<svg xmlns="http://www.w3.org/2000/svg" width="35" height="28.748" viewBox="0 0 35 28.748">
  <path id="ios-airplane" d="M61.326,83.874c-.266,0-1.156.008-1.406.023l-5.07.133a.145.145,0,0,1-.133-.07l-7.6-11.382A1.256,1.256,0,0,0,46.062,72H44.21c-.437,0-.586.437-.43.844L47.694,84a.153.153,0,0,1-.141.211l-9.562.141a.629.629,0,0,1-.516-.242l-2.89-3.515a1.24,1.24,0,0,0-.984-.477H32.289a.311.311,0,0,0-.3.414L33.547,85.9a1.273,1.273,0,0,1,0,.93l-1.555,5.367a.311.311,0,0,0,.3.414h1.3a1.263,1.263,0,0,0,.984-.477l2.945-3.57a.64.64,0,0,1,.516-.242l9.507.211a.155.155,0,0,1,.141.211L43.773,99.9c-.156.406-.008.844.43.844h1.851a1.246,1.246,0,0,0,1.055-.578L54.717,88.8a.153.153,0,0,1,.133-.07l5.07.133c.258.016,1.141.023,1.406.023,3.461,0,5.648-1.117,5.648-2.5S64.795,83.874,61.326,83.874Z" transform="translate(-31.974 -72)" fill="#32353c"/>
</svg>
