<?xml version="1.0" encoding="utf-8"?>
<!-- Generator: Adobe Illustrator 23.0.0, SVG Export Plug-In . SVG Version: 6.00 Build 0)  -->
<svg version="1.1" id="Layer_1" xmlns="http://www.w3.org/2000/svg" xmlns:xlink="http://www.w3.org/1999/xlink" x="0px" y="0px"
	 viewBox="0 0 41.7 41.7" style="enable-background:new 0 0 41.7 41.7;" xml:space="preserve">
<style type="text/css">
	.st0{fill:#767676;}
</style>
<g>
	<path class="st0" d="M20.9,0C9.3,0,0,9.3,0,20.8c0,11.5,9.3,20.8,20.8,20.9c11.5,0,20.9-9.3,20.9-20.8C41.7,9.3,32.4,0,20.9,0z
		 M29.2,25.6c-0.2,2.5-1.6,4.2-3.9,5.1c-3.1,1.2-6.2,1.1-9.2-0.2c-2.3-1-3.4-2.8-3.6-5.3c0-0.4,0.1-0.5,0.4-0.5c1,0,2,0,3,0
		c0.6,0,0.6,0,0.7,0.6c0.3,1.4,1.1,2.2,2.4,2.5c0.9,0.2,1.9,0.3,2.8,0.2c0.7-0.1,1.4-0.2,2.1-0.5c0.9-0.5,1.4-1.5,1.2-2.5
		c-0.1-0.6-0.5-0.9-1-1.2c-0.9-0.5-1.9-0.7-2.9-0.9c-1.7-0.4-3.5-0.7-5.1-1.3c-1.9-0.7-3-2.1-3.3-4.1c-0.4-3.2,1.3-5.8,4.4-6.7
		c2.4-0.7,4.9-0.7,7.2,0.2c2.1,0.9,3.6,2.4,4,4.7c0.2,1.2,0.2,1.2-1,1.2h-1c-0.6,0-1.1,0-1.7,0c-0.1,0-0.3,0-0.3-0.2
		c-0.2-1.7-1.2-2.5-2.8-2.8c-1-0.2-2-0.2-3,0.1c-0.4,0.1-0.7,0.3-1,0.5c-0.7,0.5-1,1.2-0.9,2c0.1,0.8,0.6,1.3,1.3,1.5
		c1,0.4,2.1,0.6,3.2,0.9c1.4,0.3,2.8,0.6,4.1,1c0.8,0.3,1.6,0.6,2.2,1.2C29,22.3,29.3,23.9,29.2,25.6z"/>
</g>
</svg>
