<svg xmlns="http://www.w3.org/2000/svg" xmlns:xlink="http://www.w3.org/1999/xlink" width="92" height="92" viewBox="0 0 92 92">
  <defs>
    <filter id="bg" x="0" y="0" width="92" height="92" filterUnits="userSpaceOnUse">
      <feOffset dy="2" input="SourceAlpha"/>
      <feGaussianBlur stdDeviation="3" result="blur"/>
      <feFlood flood-color="#474747" flood-opacity="0.322"/>
      <feComposite operator="in" in2="blur"/>
      <feComposite in="SourceGraphic"/>
    </filter>
  </defs>
  <g id="Share" transform="translate(-42 -1021)">
    <g transform="matrix(1, 0, 0, 1, 42, 1021)" filter="url(#bg)">
      <path id="bg-2" data-name="bg" d="M37,0A37,37,0,1,1,0,37,37,37,0,0,1,37,0Z" transform="translate(9 7)" fill="#fff"/>
    </g>
    <path id="ios-add" d="M148.979,137.526h-8.6v-8.6a1.426,1.426,0,0,0-2.852,0v8.6h-8.6a1.426,1.426,0,0,0,0,2.852h8.6v8.6a1.426,1.426,0,1,0,2.852,0v-8.6h8.6a1.426,1.426,0,0,0,0-2.852Z" transform="translate(-50.952 926.048)" fill="#32353c"/>
  </g>
</svg>
