<svg xmlns="http://www.w3.org/2000/svg" width="133" height="35" viewBox="0 0 133 35">
  <g id="twitter" transform="translate(-682 -1272)">
    <text id="Twitter-2" data-name="Twitter" transform="translate(769 1300)" fill="#32353c" font-size="26" font-family="SegoeUI-Bold, Segoe UI" font-weight="700" letter-spacing="0.021em"><tspan x="-45.005" y="0">Twitter</tspan></text>
    <path id="logo-twitter" d="M44.1,66.314a9.955,9.955,0,0,1-2.828.778,4.941,4.941,0,0,0,2.167-2.726,9.784,9.784,0,0,1-3.128,1.2,4.922,4.922,0,0,0-8.519,3.367,4.821,4.821,0,0,0,.127,1.124A13.954,13.954,0,0,1,21.768,64.9,4.934,4.934,0,0,0,23.3,71.481a4.809,4.809,0,0,1-2.238-.615v.061a4.928,4.928,0,0,0,3.952,4.832,4.957,4.957,0,0,1-1.3.173,4.645,4.645,0,0,1-.926-.092,4.932,4.932,0,0,0,4.6,3.423,9.872,9.872,0,0,1-6.118,2.111A9.982,9.982,0,0,1,20.1,81.3a13.763,13.763,0,0,0,7.537,2.228A13.926,13.926,0,0,0,41.659,69.5c0-.214-.005-.427-.015-.636A10.023,10.023,0,0,0,44.1,66.314Z" transform="translate(661.9 1218)" fill="#32353c"/>
  </g>
</svg>
